<svg width="61" height="59" viewBox="0 0 61 59" fill="none" xmlns="http://www.w3.org/2000/svg">
<ellipse cx="30.3909" cy="29.3246" rx="30.3909" ry="29.3246" fill="#2A5664" fill-opacity="0.77"/>
<path d="M35.73 27.2155L46.1705 16.488C46.468 16.7995 46.65 17.2265 46.65 17.7025V39.301C46.65 39.749 46.482 40.155 46.216 40.4595L35.73 27.2155ZM12.8855 16.439C13.169 16.166 13.5435 15.9945 13.9565 15.9945H45.04C45.4565 15.9945 45.831 16.166 46.1145 16.439L29.5 30.2045L12.8855 16.439ZM12.784 40.4595C12.518 40.155 12.35 39.749 12.35 39.301V17.699C12.35 17.223 12.5355 16.796 12.8295 16.4845L23.27 27.2155L12.784 40.4595ZM29.5 33.617L33.8575 29.137L46.1425 40.5365C45.8555 40.827 45.467 41.0055 45.04 41.0055H13.9565C13.5295 41.0055 13.141 40.8235 12.854 40.5365L25.139 29.137L29.5 33.617Z" fill="#ECECEC"/>
</svg>
