<svg width="61" height="59" viewBox="0 0 61 59" fill="none" xmlns="http://www.w3.org/2000/svg">
<ellipse cx="30.3909" cy="29.3246" rx="30.3909" ry="29.3246" fill="#2A5664" fill-opacity="0.77"/>
<g clip-path="url(#clip0_2_2)">
<path d="M30.0755 10.0312C28.3364 10.1669 26.8073 10.574 25.2814 11.3078C20.716 13.5033 17.8553 18.1626 18.0057 23.1487C18.0652 25.0142 18.4819 26.7102 19.2778 28.3291C19.6193 29.0229 19.8512 29.4176 20.315 30.1021C20.5186 30.3981 22.9971 34.3235 25.8297 38.8193C28.6592 43.3182 30.9873 47 30.9998 47C31.0123 47 33.3404 43.3182 36.1699 38.8224C39.0025 34.3235 41.481 30.3981 41.6846 30.1021C42.1484 29.4176 42.3803 29.0229 42.7218 28.3291C44.0409 25.6495 44.3511 22.5659 43.596 19.6304C42.8315 16.6763 41.0204 14.0954 38.4573 12.3192C36.2764 10.8052 33.5974 9.97883 30.9246 10.0004C30.6301 10.0035 30.2478 10.0158 30.0755 10.0312ZM32.0652 15.4706C33.4438 15.7173 34.6126 16.3063 35.5745 17.2437C37.9841 19.5903 38.1596 23.3491 35.9819 25.9146C34.9322 27.1542 33.4219 27.959 31.7706 28.1595C31.4134 28.2026 30.5862 28.2026 30.229 28.1595C27.5562 27.8357 25.3722 25.9547 24.7017 23.3985C24.2599 21.7179 24.5388 19.8955 25.4631 18.4247C26.4971 16.7873 28.1641 15.7235 30.1538 15.4398C30.5611 15.3812 31.6609 15.3997 32.0652 15.4706Z" fill="#ECECEC"/>
</g>
<defs>
<clipPath id="clip0_2_2">
<rect width="24" height="37" fill="white" transform="translate(18 10)"/>
</clipPath>
</defs>
</svg>
